<svg xmlns="http://www.w3.org/2000/svg" width="19" height="19" viewBox="0 0 19 19">
  <g id="Group_11830" data-name="Group 11830" transform="translate(-1010 -147)">
    <path id="Path_6617" data-name="Path 6617" d="M1027.5,159.51a10.835,10.835,0,0,1-3.408-.543,1.515,1.515,0,0,0-1.484.314l-2.157,1.629a12.058,12.058,0,0,1-5.362-5.361l1.585-2.106a1.514,1.514,0,0,0,.371-1.53,10.876,10.876,0,0,1-.545-3.413,1.5,1.5,0,0,0-1.5-1.5h-3.5a1.5,1.5,0,0,0-1.5,1.5,17.521,17.521,0,0,0,17.5,17.5,1.5,1.5,0,0,0,1.5-1.5v-3.49A1.5,1.5,0,0,0,1027.5,159.51Z" fill="#d0103a"/>
    <path id="Path_6618" data-name="Path 6618" d="M1021.5,148a6.508,6.508,0,0,1,6.5,6.5.5.5,0,0,0,1,0,7.508,7.508,0,0,0-7.5-7.5.5.5,0,0,0,0,1Z" fill="#d0103a"/>
    <path id="Path_6619" data-name="Path 6619" d="M1021.5,152a2.5,2.5,0,0,1,2.5,2.5.5.5,0,0,0,1,0,3.5,3.5,0,0,0-3.5-3.5.5.5,0,0,0,0,1Z" fill="#d0103a"/>
  </g>
</svg>
