<svg xmlns="http://www.w3.org/2000/svg" width="24" height="16"><g id="Mail" transform="translate(-680 -1788)"><g id="Group_11617" data-name="Group 11617" fill="#d0103a"><path id="Path_6543" data-name="Path 6543" d="M704 1789.5a1.476 1.476 0 00-.192-.719l-9.551 7.219 9.54 7.24a1.479 1.479 0 00.2-.74z"/><path id="Path_6544" data-name="Path 6544" d="M691.046 1795.731a1.558 1.558 0 001.906 0l10.091-7.626a1.489 1.489 0 00-.543-.106h-21a1.485 1.485 0 00-.542.1z"/><path id="Path_6545" data-name="Path 6545" d="M680.192 1788.78a1.49 1.49 0 00-.192.72v13a1.475 1.475 0 00.2.739l9.54-7.239z"/><path id="Path_6546" data-name="Path 6546" d="M693.417 1796.619a2.495 2.495 0 01-2.834 0l-9.6 7.285a1.505 1.505 0 00.517.1h21a1.467 1.467 0 00.515-.1z"/></g></g></svg>