<svg xmlns="http://www.w3.org/2000/svg" width="26" height="24.469"><path id="LinkedIn_Icon" data-name="LinkedIn Icon" d="M14.558 24.469H8.987c0-.126.074-14.979 0-16.51h5.572V10.3a5.524 5.524 0 015.024-2.725 6.083 6.083 0 014.583 1.813A7.947 7.947 0 0126 15v9.465h-5.575v-8.829c0-2.443-.977-3.734-2.824-3.734a3.091 3.091 0 00-2.856 2.009 3.533 3.533 0 00-.186 1.338v9.221zm-8.658 0H.331V7.96H5.9v16.508zM3.115 5.706h-.038A2.874 2.874 0 010 2.853 2.883 2.883 0 013.153 0a2.865 2.865 0 11-.038 5.706z" fill="rgba(54,58,54,0.6)"/></svg>