<svg xmlns="http://www.w3.org/2000/svg" width="26" height="24.469" viewBox="0 0 26 24.469">
    <path id="LinkedIn_Icon" data-name="LinkedIn Icon" d="M14.558,24.469h0l-5.571,0c0-.126.074-14.979,0-16.51h5.572V10.3a5.524,5.524,0,0,1,5.024-2.725,6.083,6.083,0,0,1,4.583,1.813A7.947,7.947,0,0,1,26,15v9.465l-5.575,0V15.636c0-2.443-.977-3.734-2.824-3.734a3.091,3.091,0,0,0-2.856,2.009,3.533,3.533,0,0,0-.186,1.338v9.221Zm-8.658,0H.331V7.96H5.9V24.468ZM3.115,5.706H3.077A2.874,2.874,0,0,1,0,2.853,2.883,2.883,0,0,1,3.153,0a2.865,2.865,0,1,1-.038,5.706Z" fill="rgba(54,58,54,0.6)"/>
</svg>