<svg xmlns="http://www.w3.org/2000/svg" width="26" height="21.413" viewBox="0 0 26 21.413">
    <path id="Twitter_Icon" data-name="Twitter Icon" d="M26,2.535a10.588,10.588,0,0,1-3.064.852A5.415,5.415,0,0,0,25.281.4a10.574,10.574,0,0,1-3.388,1.311A5.287,5.287,0,0,0,18,0a5.37,5.37,0,0,0-5.334,5.406A5.548,5.548,0,0,0,12.8,6.638,15.076,15.076,0,0,1,1.811.99a5.46,5.46,0,0,0,1.65,7.217A5.26,5.26,0,0,1,1.046,7.53V7.6a5.39,5.39,0,0,0,4.278,5.3,5.259,5.259,0,0,1-1.406.19,5.179,5.179,0,0,1-1-.1A5.349,5.349,0,0,0,7.9,16.744a10.613,10.613,0,0,1-6.625,2.314A10.615,10.615,0,0,1,0,18.984a14.961,14.961,0,0,0,8.177,2.429c9.812,0,15.177-8.238,15.177-15.38,0-.236-.006-.468-.015-.7A10.924,10.924,0,0,0,26,2.536Z" fill="rgba(54,58,54,0.6)"/>
</svg>